<svg width="48" height="48" viewBox="0 0 48 48" fill="none" xmlns="http://www.w3.org/2000/svg">
<path d="M0 8C0 3.58172 3.58172 0 8 0H40C44.4183 0 48 3.58172 48 8V40C48 44.4183 44.4183 48 40 48H8C3.58172 48 0 44.4183 0 40V8Z" fill="#F1F1F1"/>
<path d="M14.2236 15.5528C14.393 15.214 14.7393 15 15.118 15H15.4307C16.153 15 16.6371 15.7424 16.3457 16.4033L8.85229 33.4033C8.69244 33.766 8.33353 34 7.93724 34H6.61803C5.87465 34 5.39116 33.2177 5.72361 32.5528L14.2236 15.5528Z" fill="#062B04"/>
<path d="M22.733 19.5007C22.8973 19.1925 23.2182 19 23.5674 19C24.2459 19 24.7036 19.6934 24.437 20.3173L18.8487 33.393C18.6914 33.7612 18.3296 34 17.9292 34H16.6667C15.9117 34 15.4291 33.1955 15.7843 32.5294L22.733 19.5007Z" fill="#062B04"/>
<path d="M34.2236 15.5528C34.393 15.214 34.7393 15 35.118 15H35.4307C36.153 15 36.6371 15.7424 36.3457 16.4033L28.8523 33.4033C28.6924 33.766 28.3335 34 27.9372 34H26.618C25.8747 34 25.3912 33.2177 25.7236 32.5528L34.2236 15.5528Z" fill="#062B04"/>
<rect x="6" y="31" width="36" height="3" rx="1" fill="#062B04"/>
<rect x="31" y="23" width="9" height="3" rx="1" fill="#062B04"/>
<rect x="24" y="15" width="18" height="3" rx="1" fill="#062B04"/>
</svg>
