<svg width="48" height="48" viewBox="0 0 48 48" fill="none" xmlns="http://www.w3.org/2000/svg">
<path d="M0 8C0 3.58172 3.58172 0 8 0H40C44.4183 0 48 3.58172 48 8V40C48 44.4183 44.4183 48 40 48H8C3.58172 48 0 44.4183 0 40V8Z" fill="#F1F1F1"/>
<path d="M15.2087 15.5927C15.3694 15.2322 15.7272 15 16.122 15H16.2032C16.9081 15 17.3918 15.7098 17.1339 16.3659L10.4506 33.3659C10.3002 33.7484 9.93096 34 9.51989 34H8.54087C7.81667 34 7.33262 33.2541 7.62757 32.5927L15.2087 15.5927Z" fill="#062B04"/>
<rect x="7.89189" y="31" width="32.1081" height="3" rx="1" fill="#062B04"/>
</svg>
